<mxfile host="app.diagrams.net" agent="Mozilla/5.0 (Windows NT 10.0; Win64; x64) AppleWebKit/537.36 (KHTML, like Gecko) Chrome/137.0.0.0 Safari/537.36" version="27.1.6">
  <diagram name="Page-1" id="hOD6ad7WIJv43JRN2Hp0">
    <mxGraphModel dx="1042" dy="527" grid="1" gridSize="10" guides="1" tooltips="1" connect="1" arrows="1" fold="1" page="1" pageScale="1" pageWidth="827" pageHeight="1169" math="0" shadow="0">
      <root>
        <mxCell id="0" />
        <mxCell id="1" parent="0" />
        <mxCell id="wNJc03guBC1biLOyHMaj-1" value="Hotel System" style="rounded=0;whiteSpace=wrap;html=1;labelPosition=center;verticalLabelPosition=top;align=center;verticalAlign=bottom;" parent="1" vertex="1">
          <mxGeometry x="200" y="120" width="240" height="480" as="geometry" />
        </mxCell>
        <mxCell id="wNJc03guBC1biLOyHMaj-2" value="&lt;div style=&quot;line-height: 0%;&quot;&gt;&lt;span style=&quot;background-color: initial;&quot;&gt;Guest&lt;/span&gt;&lt;/div&gt;" style="rounded=0;whiteSpace=wrap;html=1;align=center;labelPosition=center;verticalLabelPosition=top;verticalAlign=bottom;" parent="1" vertex="1">
          <mxGeometry x="560" y="120" width="240" height="480" as="geometry" />
        </mxCell>
        <mxCell id="wNJc03guBC1biLOyHMaj-3" value="Receptionist" style="rounded=0;whiteSpace=wrap;html=1;labelPosition=center;verticalLabelPosition=top;align=center;verticalAlign=bottom;" parent="1" vertex="1">
          <mxGeometry x="520" y="640" width="200" height="240" as="geometry" />
        </mxCell>
        <object label="Hotel Manager" Alias="HM" id="wNJc03guBC1biLOyHMaj-4">
          <mxCell style="rounded=0;labelPosition=center;verticalLabelPosition=top;align=center;verticalAlign=bottom;spacing=0;whiteSpace=wrap;html=1;labelBorderColor=none;fontSize=12;" parent="1" vertex="1">
            <mxGeometry y="390" width="160" height="207.5" as="geometry" />
          </mxCell>
        </object>
        <mxCell id="wNJc03guBC1biLOyHMaj-5" value="Card Payment System" style="rounded=0;whiteSpace=wrap;html=1;labelPosition=center;verticalLabelPosition=top;align=center;verticalAlign=bottom;" parent="1" vertex="1">
          <mxGeometry x="200" y="640" width="200" height="240" as="geometry" />
        </mxCell>
        <mxCell id="wNJc03guBC1biLOyHMaj-8" value="Start: Visit hotel website" style="rounded=0;textShadow=0;whiteSpace=wrap;" parent="1" vertex="1">
          <mxGeometry x="610" y="140" width="100" height="40" as="geometry" />
        </mxCell>
        <mxCell id="dR7iIaw7vItlcQrHCfmJ-1" value="Guest Registered?" style="rhombus;whiteSpace=wrap;html=1;" parent="1" vertex="1">
          <mxGeometry x="280" y="130" width="80" height="80" as="geometry" />
        </mxCell>
        <mxCell id="dR7iIaw7vItlcQrHCfmJ-3" value="Load existing guest data" style="rounded=1;whiteSpace=wrap;html=1;" parent="1" vertex="1">
          <mxGeometry x="260" y="240" width="120" height="30" as="geometry" />
        </mxCell>
        <mxCell id="dR7iIaw7vItlcQrHCfmJ-4" value="Check room availability" style="rounded=1;whiteSpace=wrap;html=1;" parent="1" vertex="1">
          <mxGeometry x="260" y="310" width="120" height="30" as="geometry" />
        </mxCell>
      </root>
    </mxGraphModel>
  </diagram>
</mxfile>
